<svg width="40" height="40" viewBox="0 0 40 40" fill="none" xmlns="http://www.w3.org/2000/svg">
  <path d="M16.1855 24.3967L11.7612 19.8569L11.5464 19.6364L11.3315 19.8569L9.78515 21.4436L9.5811 21.653L9.78515 21.8624L15.9706 28.2094L16.1855 28.4298L16.4003 28.2094L29.6549 14.6086L29.8589 14.3993L29.6549 14.1899L28.1085 12.6031L27.8936 12.3827L27.6788 12.6031L16.1855 24.3967Z" fill="#9F65FF" stroke="#9F65FF" stroke-width="0.6"/>
  <path d="M38.5 20C38.5 22.4295 38.0215 24.8351 37.0918 27.0796C36.1621 29.3242 34.7994 31.3636 33.0815 33.0815C31.3636 34.7994 29.3242 36.1621 27.0796 37.0918C24.8351 38.0215 22.4295 38.5 20 38.5C17.5705 38.5 15.1649 38.0215 12.9204 37.0918C10.6758 36.1621 8.63641 34.7994 6.91852 33.0815C5.20064 31.3636 3.83794 29.3242 2.90823 27.0796C1.97852 24.8351 1.5 22.4295 1.5 20C1.5 17.5705 1.97852 15.1649 2.90823 12.9204C3.83794 10.6758 5.20064 8.63641 6.91853 6.91852C8.63641 5.20064 10.6758 3.83794 12.9204 2.90823C15.1649 1.97852 17.5705 1.5 20 1.5C22.4295 1.5 24.8351 1.97852 27.0796 2.90823C29.3242 3.83794 31.3636 5.20064 33.0815 6.91853C34.7994 8.63641 36.1621 10.6758 37.0918 12.9204C38.0215 15.1649 38.5 17.5705 38.5 20L38.5 20Z" stroke="#9F65FF" stroke-width="3"/>
</svg>
