<svg width="32" height="32" viewBox="0 0 32 32" fill="none" xmlns="http://www.w3.org/2000/svg">
<path d="M8.73093 14.8916C9.12601 14.4965 9.76657 14.4965 10.1617 14.8916L18.1896 22.9196C18.5847 23.3147 18.5847 23.9552 18.1896 24.3503L17.5537 24.9862C14.9418 27.5981 10.707 27.5981 8.09505 24.9862C5.48312 22.3742 5.48311 18.1394 8.09505 15.5275L8.73093 14.8916Z" fill="#91879E"/>
<path d="M24.3501 18.1899C23.955 18.585 23.3145 18.585 22.9194 18.1899L14.8915 10.162C14.4964 9.76689 14.4964 9.12633 14.8915 8.73125L15.5273 8.09538C18.1393 5.48344 22.3741 5.48344 24.986 8.09538C27.5979 10.7073 27.5979 14.9421 24.986 17.554L24.3501 18.1899Z" fill="#91879E"/>
<rect x="12.8247" y="13.501" width="1.91094" height="3.82188" transform="rotate(45 12.8247 13.501)" fill="#91879E"/>
<rect x="18.2305" y="18.9053" width="1.91094" height="3.82188" transform="rotate(45 18.2305 18.9053)" fill="#91879E"/>
<rect x="10.7981" y="20.9321" width="1.91094" height="10.5102" transform="rotate(45 10.7981 20.9321)" fill="#91879E"/>
<rect x="28.3633" y="3.36572" width="1.91094" height="10.5102" transform="rotate(45 28.3633 3.36572)" fill="#91879E"/>
</svg>
