<?xml version="1.0" encoding="UTF-8"?>
<svg width="148px" height="76px" viewBox="0 0 148 76" version="1.1" xmlns="http://www.w3.org/2000/svg" xmlns:xlink="http://www.w3.org/1999/xlink">
    <!-- Generator: Sketch 51.3 (57544) - http://www.bohemiancoding.com/sketch -->
    <title>Group 9</title>
    <desc>Created with Sketch.</desc>
    <defs></defs>
    <g id="Page-1" stroke="none" stroke-width="1" fill="none" fill-rule="evenodd">
        <g id="neon_logo_line_purple_black" transform="translate(-521.000000, -383.000000)">
            <g id="Group-9" transform="translate(521.000000, 382.889800)">
                <path d="M3.2385,0.6406 L24.3487,21.7508 C24.8742,22.2766 24.8742,23.1293 24.3487,23.6548 C24.0859,23.9179 23.7412,24.0491 23.3965,24.0491 L23.3965,24.0494 L2.2773,24.0494 C1.5338,24.0494 0.9308,23.4465 0.9308,22.703 L0.9308,1.5837 C0.9308,0.8399 1.5338,0.237 2.2773,0.237 C2.6537,0.237 2.9942,0.3917 3.2385,0.6406 Z M20.146,21.3562 L3.624,4.8342 L3.624,21.3562 L20.146,21.3562 Z" id="Fill-2" fill="#C300E1"></path>
                <path d="M43.5548,44.765 L22.4447,23.6548 C21.9188,23.1293 21.9188,22.2766 22.4447,21.7508 C22.7074,21.488 23.0521,21.3565 23.3965,21.3565 L23.3965,21.3562 L44.5158,21.3562 C45.2596,21.3562 45.8625,21.9591 45.8625,22.703 L45.8625,43.8222 C45.8625,44.5657 45.2596,45.1687 44.5158,45.1687 C44.1393,45.1687 43.7989,45.0139 43.5548,44.765 Z M26.6473,24.0494 L43.1693,40.5714 L43.1693,24.0494 L26.6473,24.0494 Z" id="Fill-3" fill="#C300E1"></path>
                <path d="M3.624,40.5714 L20.146,24.0494 L3.624,24.0494 L3.624,40.5714 Z M24.3487,23.6548 L3.2385,44.765 C2.9942,45.0139 2.6537,45.1687 2.2773,45.1687 C1.5338,45.1687 0.9308,44.5657 0.9308,43.8222 L0.9308,22.703 C0.9308,21.9591 1.5338,21.3562 2.2773,21.3562 L23.3965,21.3562 L23.3965,21.3565 C23.7412,21.3565 24.0859,21.488 24.3487,21.7508 C24.8742,22.2766 24.8742,23.1293 24.3487,23.6548 Z" id="Fill-4" fill="#C300E1"></path>
                <path d="M22.0501,25.9534 L5.5281,42.4755 L22.0501,42.4755 L22.0501,25.9534 Z M1.3254,42.87 L22.4353,21.7599 C22.6797,21.511 23.0201,21.3562 23.3965,21.3562 C24.1403,21.3562 24.7433,21.9591 24.7433,22.703 L24.7433,43.8222 C24.7433,44.5657 24.1403,45.1687 23.3965,45.1687 L2.2773,45.1687 L2.2773,45.1684 C1.9329,45.1684 1.5882,45.0371 1.3254,44.7741 C0.7996,44.2485 0.7996,43.3959 1.3254,42.87 Z" id="Fill-5" fill="#C300E1"></path>
                <path d="M43.1693,4.8342 L26.6473,21.3562 L43.1693,21.3562 L43.1693,4.8342 Z M22.4447,21.7508 L43.5548,0.6406 C43.7989,0.3917 44.1393,0.237 44.5158,0.237 C45.2596,0.237 45.8625,0.8399 45.8625,1.5837 L45.8625,22.703 C45.8625,23.4465 45.2596,24.0494 44.5158,24.0494 L23.3965,24.0494 L23.3965,24.0491 C23.0521,24.0491 22.7074,23.9179 22.4447,23.6548 C21.9188,23.1293 21.9188,22.2766 22.4447,21.7508 Z" id="Fill-6" fill="#C300E1"></path>
                <path d="M24.7433,19.4522 L41.2653,2.9302 L24.7433,2.9302 L24.7433,19.4522 Z M45.4679,2.5356 L24.3578,23.6458 C24.1134,23.8946 23.773,24.0494 23.3965,24.0494 C22.653,24.0494 22.0501,23.4465 22.0501,22.703 L22.0501,1.5837 C22.0501,0.8399 22.653,0.237 23.3965,0.237 L44.5158,0.237 L44.5158,0.2373 C44.8605,0.2373 45.2052,0.3688 45.4679,0.6316 C45.9938,1.1574 45.9938,2.01 45.4679,2.5356 Z" id="Fill-7" fill="#C300E1"></path>
                <path d="M58.5748,52.0824 C55.5386,52.0824 52.9106,53.4419 51.279,55.6169 L51.0978,55.6169 L51.0978,52.7168 L45.977,52.7168 L45.977,75.2386 L51.1885,75.2386 L51.1885,63.7739 C51.1885,59.8768 53.8168,57.2029 57.2606,57.2029 C60.4782,57.2029 62.6079,59.5596 62.6079,63.0941 L62.6079,75.2386 L67.8194,75.2386 L67.8194,62.2786 C67.8194,55.9341 64.1942,52.0824 58.5748,52.0824 Z M83.2266,52.0824 C76.2933,52.0824 71.5353,57.3389 71.5353,64.0003 C71.5353,70.3899 75.8403,75.8733 83.2266,75.8733 C88.5285,75.8733 92.9242,73.0636 94.3741,68.1695 L88.9817,68.1695 C88.0752,69.982 85.8548,71.115 83.3173,71.0697 C79.7827,70.979 77.3356,68.6679 76.9277,65.7677 L94.7369,65.7677 C95.4167,58.0187 90.7038,52.0824 83.2266,52.0824 Z M83.1361,56.8857 C86.3081,56.8857 88.6645,58.6984 89.3443,61.5078 L77.0184,61.5078 C77.6528,58.7438 80.0092,56.8857 83.1361,56.8857 Z M109.8269,75.8733 C117.0323,75.8733 121.8356,70.6164 121.8356,63.955 C121.8356,57.2936 117.0773,52.0824 109.8269,52.0824 C102.4406,52.0824 97.637,57.2936 97.637,63.955 C97.637,70.6164 102.4857,75.8733 109.8269,75.8733 Z M109.8269,70.8885 C105.658,70.8885 102.8936,67.8067 102.8936,64.0003 C102.8936,60.1486 105.6126,57.1124 109.8269,57.1124 C113.9054,57.1124 116.6243,60.1486 116.6243,64.0003 C116.6243,67.7616 113.9054,70.8885 109.8269,70.8885 Z M138.3757,52.0824 C135.3395,52.0824 132.7112,53.4419 131.0799,55.6169 L130.8988,55.6169 L130.8988,52.7168 L125.778,52.7168 L125.778,75.2386 L130.9895,75.2386 L130.9895,63.7739 C130.9895,59.8768 133.6175,57.2029 137.0616,57.2029 C140.2792,57.2029 142.4089,59.5596 142.4089,63.0941 L142.4089,75.2386 L147.6201,75.2386 L147.6201,62.2786 C147.6201,55.9341 143.9951,52.0824 138.3757,52.0824 Z" id="Fill-8" fill="#FFFFFF"></path>
            </g>
        </g>
    </g>
</svg>